<svg viewBox="0 0 21 24" fill="currentColor" xmlns="http://www.w3.org/2000/svg">
<path d="M0.769211 7.10391H6.07288C6.51823 7.10391 6.84209 7.41844 6.84209 7.85093C6.84209 8.28343 6.47774 8.59797 6.07288 8.59797H1.53845V10.092H18.4615V8.59797H13.9271C13.4818 8.59797 13.1579 8.28343 13.1579 7.85093C13.1579 7.41844 13.4818 7.10391 13.9271 7.10391H19.2308C19.6761 7.10391 20 7.41844 20 7.85093V10.8391C20 11.2322 19.6761 11.5861 19.2308 11.5861H18.2591L17.1255 19.3709C17.085 19.7248 16.7206 20 16.3563 20H3.6437C3.23885 20 2.91498 19.6855 2.87449 19.3316L1.74089 11.6254H0.769211C0.323866 11.6254 0 11.2715 0 10.8784V7.89025C0 7.49708 0.323866 7.14322 0.769211 7.14322V7.10391ZM5.30364 12.8049V17.0512C5.30364 17.2871 5.50607 17.4837 5.74899 17.4837C5.9919 17.4837 6.19433 17.2871 6.19433 17.0512V12.8049C6.19433 12.569 5.9919 12.3724 5.74899 12.3724C5.50607 12.3724 5.30364 12.569 5.30364 12.8049ZM8.09717 12.8049V17.0512C8.09717 17.2871 8.29961 17.4837 8.54252 17.4837C8.78544 17.4837 8.98784 17.2871 8.98784 17.0512V12.8049C8.98784 12.569 8.78544 12.3724 8.54252 12.3724C8.29961 12.3724 8.09717 12.569 8.09717 12.8049ZM10.9312 12.8049V17.0512C10.9312 17.2871 11.1336 17.4837 11.417 17.4837C11.7004 17.4837 11.8624 17.2871 11.8624 17.0512V12.8049C11.8624 12.569 11.6599 12.3724 11.417 12.3724C11.1741 12.3724 10.9312 12.569 10.9312 12.8049ZM13.7247 12.8049V17.0512C13.7247 17.2871 13.9271 17.4837 14.2105 17.4837C14.4939 17.4837 14.6559 17.2871 14.6559 17.0512V12.8049C14.6559 12.569 14.4534 12.3724 14.2105 12.3724C13.9676 12.3724 13.7247 12.569 13.7247 12.8049ZM16.6802 0.262685L9.95952 7.7723L3.23885 0.262685C2.95545 -0.0518536 2.46963 -0.0911728 2.14575 0.184049C1.82186 0.45927 1.78136 0.931081 2.06476 1.24562L9.35223 9.38432C9.35223 9.38432 9.3927 9.42363 9.43318 9.46295C9.75707 9.73817 10.2429 9.69886 10.5263 9.38432L17.8138 1.24562C18.0972 0.931081 18.0567 0.45927 17.7328 0.184049C17.4089 -0.0911728 16.9231 -0.0518536 16.6397 0.262685H16.6802ZM16.7611 10.9963H3.19836L4.29149 18.5059H15.668L16.7611 10.9963Z" fill="currentColor"/>
<circle cx="16.5" cy="19.5" r="4.5" fill="#E7E0D4"/>
<path d="M20 20.0972H17.1256V23H15.8575V20.0972H13V18.9028H15.8575V16H17.1256V18.9028H20V20.0972Z" fill="#2D2D2D"/>
</svg>
