<svg  viewBox="0 0 20 20" fill="currentColor" xmlns="http://www.w3.org/2000/svg">
<path d="M19.3836 16.4533L14.9192 11.9867C15.5989 10.8133 15.992 9.45333 15.992 8C15.992 3.58667 12.4071 0 7.996 0C3.58487 0 0 3.58667 0 8C0 12.4133 3.58487 16 7.996 16C9.44861 16 10.8013 15.6067 11.9807 14.9267L16.4451 19.3933C16.8516 19.8 17.3846 20 17.9177 20C18.4508 20 18.9838 19.8 19.3903 19.3933C20.2032 18.58 20.2032 17.26 19.3903 16.4533H19.3836ZM1.33934 8.00667C1.33934 4.33333 4.33117 1.34 8.00267 1.34C11.6742 1.34 14.666 4.33333 14.666 8.00667C14.666 11.68 11.6742 14.6733 8.00267 14.6733C4.33117 14.6733 1.33934 11.68 1.33934 8.00667ZM18.4441 18.4533C18.1509 18.7467 17.6778 18.7467 17.3846 18.4533L13.0935 14.16C13.4799 13.84 13.8331 13.4867 14.1529 13.1L18.4441 17.3933C18.7373 17.6867 18.7373 18.16 18.4441 18.4533Z" fill="currentColor"/>
</svg>
