<svg width="36" height="38" viewBox="0 0 36 38" fill="none" xmlns="http://www.w3.org/2000/svg">
<path d="M35.7626 5.3097C35.6044 3.88321 35.2879 2.53597 34.9714 1.26799C34.8132 0.554743 34.1802 0 33.4681 0H2.53187C1.8989 0 1.26593 0.475491 1.10769 1.10948C0.791204 2.45672 0.474717 3.88321 0.316476 5.3097C0.158234 6.73619 0 8.16266 0 9.58915C0 15.8498 1.74065 21.7143 4.74724 26.5485C7.83296 31.5412 12.2637 35.5037 17.4066 37.8811C17.8022 38.0396 18.1978 38.0396 18.5934 37.8811C23.8154 35.5829 28.167 31.6204 31.2527 26.5485C34.2593 21.7143 36 15.8498 36 9.58915C36 8.16266 35.9209 6.73619 35.6835 5.3097H35.7626ZM28.8 24.9635C26.189 29.243 22.4703 32.7299 18.0396 34.7904C13.6879 32.6507 9.96923 29.243 7.27912 24.9635C4.58901 20.6048 3.00659 15.2951 3.00659 9.58915C3.00659 8.24191 3.00659 6.97393 3.24396 5.70594C3.32308 4.8342 3.48131 3.96246 3.71868 3.01146H32.2813C32.4396 3.88321 32.5978 4.75495 32.756 5.70594C32.9143 6.97393 32.9934 8.24191 32.9934 9.58915C32.9934 15.2951 31.411 20.6048 28.7209 24.9635H28.8ZM29.7494 8.47967C29.7494 8.47967 29.7494 7.68717 29.7494 7.44942C29.7494 6.97392 29.3538 6.57769 28.8 6.57769H7.35823C6.8835 6.57769 6.48791 6.97392 6.48791 7.44942C6.48791 7.76641 6.48791 8.08342 6.48791 8.47967C6.48791 8.87591 6.48791 9.27215 6.48791 9.5099C6.48791 13.7894 7.51648 17.9896 9.4945 21.7143C11.3934 25.2805 14.1626 28.3712 17.7231 30.511C18.0396 30.6695 18.356 30.6695 18.6725 30.511C22.233 28.3712 24.9231 25.2805 26.9011 21.7143C28.8791 17.9896 29.9077 13.7894 29.9077 9.5099C29.9077 9.1929 29.9077 8.87591 29.9077 8.47967H29.7494ZM8.14944 9.5099C8.14944 9.5099 8.14944 8.79667 8.14944 8.55892V8.40042H25.3978L10.9187 20.7633C9.0989 17.3556 8.14944 13.4724 8.14944 9.5099ZM25.1604 20.8425C23.4989 23.9333 21.1253 26.707 18.0396 28.609C15.8242 27.1825 14.0044 25.3597 12.5011 23.2993L27.9297 10.1439C27.8505 13.8686 26.9011 17.5933 25.1604 20.8425Z" fill="white"/>
</svg>
