<svg width="61" height="36" viewBox="0 0 61 36" fill="none" xmlns="http://www.w3.org/2000/svg">
<g clip-path="url(#clip0_112_2108)">
<path fill-rule="evenodd" clip-rule="evenodd" d="M25.7542 26.9683C24.7443 26.9683 23.9083 27.7924 23.9083 28.8083C23.9083 29.8242 24.7443 30.6587 25.7542 30.6587C26.7641 30.6587 27.6157 29.8242 27.6157 28.8083C27.6157 27.7924 26.7797 26.9683 25.7542 26.9683ZM25.7542 26.9683C24.7443 26.9683 23.9083 27.7924 23.9083 28.8083C23.9083 29.8242 24.7443 30.6587 25.7542 30.6587C26.7641 30.6587 27.6157 29.8242 27.6157 28.8083C27.6157 27.7924 26.7797 26.9683 25.7542 26.9683ZM12.9395 10.4053V12.8155H16.6468V10.4053H12.9395ZM50.5426 26.9683C49.5353 26.9683 48.6993 27.7924 48.6993 28.8083C48.6993 29.8242 49.5353 30.6587 50.5426 30.6587C51.5499 30.6587 52.4067 29.8242 52.4067 28.8083C52.4067 27.7924 51.5707 26.9683 50.5426 26.9683ZM50.5426 26.9683C49.5353 26.9683 48.6993 27.7924 48.6993 28.8083C48.6993 29.8242 49.5353 30.6587 50.5426 30.6587C51.5499 30.6587 52.4067 29.8242 52.4067 28.8083C52.4067 27.7924 51.5707 26.9683 50.5426 26.9683ZM50.5426 26.9683C49.5353 26.9683 48.6993 27.7924 48.6993 28.8083C48.6993 29.8242 49.5353 30.6587 50.5426 30.6587C51.5499 30.6587 52.4067 29.8242 52.4067 28.8083C52.4067 27.7924 51.5707 26.9683 50.5426 26.9683ZM50.5426 26.9683C49.5353 26.9683 48.6993 27.7924 48.6993 28.8083C48.6993 29.8242 49.5353 30.6587 50.5426 30.6587C51.5499 30.6587 52.4067 29.8242 52.4067 28.8083C52.4067 27.7924 51.5707 26.9683 50.5426 26.9683ZM60.9793 21.684C60.9793 21.4067 60.9222 21.1216 60.7898 20.8572L55.5039 10.3146C55.2391 9.62263 54.5745 9.138 53.7749 9.138H45.4489V1.85041C45.4489 0.834497 44.6129 0 43.603 0H14.8035C13.7754 0 12.9395 0.834497 12.9395 1.85041V6.50493H16.6468V3.69304H41.7415V26.9683H31.1128C30.1054 26.9683 29.2695 27.7924 29.2695 28.8083V28.8549C29.2513 29.8035 28.8722 30.6691 28.244 31.2833C27.6157 31.9208 26.7226 32.3199 25.7542 32.3199C24.7859 32.3199 23.9083 31.9208 23.2827 31.2833C22.6362 30.6587 22.2546 29.7776 22.2546 28.8083C22.2546 27.839 21.4186 26.9683 20.4113 26.9683H16.6468V23.0238H12.9395V28.8083C12.9395 29.8242 13.7754 30.6587 14.8035 30.6587H18.7965C19.1184 31.8923 19.783 33.0119 20.6579 33.893C21.969 35.194 23.7759 36 25.7542 36C27.7325 36 29.555 35.194 30.8479 33.893C31.741 33.0119 32.3875 31.8923 32.7302 30.6587H43.5848C43.9094 31.8923 44.574 33.0119 45.4489 33.893H45.4671C46.76 35.194 48.5669 36 50.5426 36C52.5183 36 54.2318 35.2407 55.5247 33.9993L55.6389 33.893C56.532 33.0119 57.1785 31.8923 57.5186 30.6587H59.1542C60.1615 30.6587 61.0001 29.8242 61.0001 28.8083V21.684H60.9793ZM45.4489 12.8285H52.6533L55.6389 18.7891H45.4489V12.8285ZM57.2927 26.9683H55.9037C54.8783 26.9683 54.0604 27.7924 54.0604 28.8083V28.8549C54.0397 29.8035 53.6606 30.6691 53.0324 31.2833L52.9571 31.361C52.3288 31.9597 51.4928 32.3199 50.5426 32.3199C49.5924 32.3199 48.6993 31.9286 48.071 31.2936V31.2833C47.4246 30.6587 47.0456 29.7776 47.0456 28.8083C47.0456 27.839 46.342 27.1082 45.4489 26.9864V20.9998H56.7397L57.2927 22.0986V26.9683ZM50.5426 26.9683C49.5353 26.9683 48.6993 27.7924 48.6993 28.8083C48.6993 29.8242 49.5353 30.6587 50.5426 30.6587C51.5499 30.6587 52.4067 29.8242 52.4067 28.8083C52.4067 27.7924 51.5707 26.9683 50.5426 26.9683ZM50.5426 26.9683C49.5353 26.9683 48.6993 27.7924 48.6993 28.8083C48.6993 29.8242 49.5353 30.6587 50.5426 30.6587C51.5499 30.6587 52.4067 29.8242 52.4067 28.8083C52.4067 27.7924 51.5707 26.9683 50.5426 26.9683ZM50.5426 26.9683C49.5353 26.9683 48.6993 27.7924 48.6993 28.8083C48.6993 29.8242 49.5353 30.6587 50.5426 30.6587C51.5499 30.6587 52.4067 29.8242 52.4067 28.8083C52.4067 27.7924 51.5707 26.9683 50.5426 26.9683ZM12.9395 16.7133V19.1261H16.6468V16.7133H12.9395ZM50.5426 26.9683C49.5353 26.9683 48.6993 27.7924 48.6993 28.8083C48.6993 29.8242 49.5353 30.6587 50.5426 30.6587C51.5499 30.6587 52.4067 29.8242 52.4067 28.8083C52.4067 27.7924 51.5707 26.9683 50.5426 26.9683ZM50.5426 26.9683C49.5353 26.9683 48.6993 27.7924 48.6993 28.8083C48.6993 29.8242 49.5353 30.6587 50.5426 30.6587C51.5499 30.6587 52.4067 29.8242 52.4067 28.8083C52.4067 27.7924 51.5707 26.9683 50.5426 26.9683ZM25.7542 26.9683C24.7443 26.9683 23.9083 27.7924 23.9083 28.8083C23.9083 29.8242 24.7443 30.6587 25.7542 30.6587C26.7641 30.6587 27.6157 29.8242 27.6157 28.8083C27.6157 27.7924 26.7797 26.9683 25.7542 26.9683ZM50.5426 26.9683C49.5353 26.9683 48.6993 27.7924 48.6993 28.8083C48.6993 29.8242 49.5353 30.6587 50.5426 30.6587C51.5499 30.6587 52.4067 29.8242 52.4067 28.8083C52.4067 27.7924 51.5707 26.9683 50.5426 26.9683ZM50.5426 26.9683C49.5353 26.9683 48.6993 27.7924 48.6993 28.8083C48.6993 29.8242 49.5353 30.6587 50.5426 30.6587C51.5499 30.6587 52.4067 29.8242 52.4067 28.8083C52.4067 27.7924 51.5707 26.9683 50.5426 26.9683Z" fill="white"/>
<path d="M23.8412 9.66921H10.8836C10.2086 9.66921 9.66602 9.12756 9.66602 8.45374C9.66602 7.77993 10.2086 7.23828 10.8836 7.23828H23.8412C24.5162 7.23828 25.0588 7.77993 25.0588 8.45374C25.0588 9.12756 24.5162 9.66921 23.8412 9.66921Z" fill="white"/>
<path d="M22.3685 22.2903H5.27523C4.60022 22.2903 4.05762 21.7487 4.05762 21.0748C4.05762 20.401 4.60022 19.8594 5.27523 19.8594H22.3685C23.0435 19.8594 23.5861 20.401 23.5861 21.0748C23.5861 21.7487 23.0435 22.2903 22.3685 22.2903Z" fill="white"/>
<path d="M20.8967 15.9798H1.21761C0.542603 15.9798 0 15.4381 0 14.7643C0 14.0905 0.542603 13.5488 1.21761 13.5488H20.8993C21.5743 13.5488 22.1169 14.0905 22.1169 14.7643C22.1169 15.4381 21.5743 15.9798 20.8993 15.9798H20.8967Z" fill="white"/>
</g>
<defs>
<clipPath id="clip0_112_2108">
<rect width="61" height="36" fill="white"/>
</clipPath>
</defs>
</svg>
