<svg viewBox="0 0 17 20" fill="currentColor" xmlns="http://www.w3.org/2000/svg">
<path d="M11.3741 13.8057H5.58513C5.05516 13.8057 4.52518 13.9271 4.03597 14.0891C2.52758 14.6964 1.54916 16.1943 1.54916 17.8138V18.4615H15.4101V17.8138C15.4101 16.4777 14.717 15.2227 13.6163 14.4939C13.4125 14.332 13.1679 14.2105 12.9233 14.1296C12.6787 14.0486 12.4341 13.9676 12.1894 13.8866C11.9448 13.8462 11.6595 13.8057 11.3741 13.8057ZM11.8633 12.2672C11.8633 12.2672 12.271 12.3077 12.4748 12.3482C12.8417 12.4291 13.1679 12.5101 13.5348 12.6721C15.6139 13.5223 17 15.587 17 17.8138V19.2308C17 19.6356 16.6331 20 16.2254 20H0.77458C0.366906 20 0 19.6356 0 19.2308V17.8138C0 15.587 1.38609 13.5628 3.46523 12.6721C3.9952 12.4696 4.56595 12.3077 5.13669 12.2672C3.13909 11.0931 1.8753 8.90688 1.8753 6.59919C1.83453 2.95547 4.85132 0 8.47962 0C12.1079 0 15.1247 2.99595 15.1247 6.59919C15.1247 8.90688 13.8609 11.0931 11.8633 12.2672ZM8.47962 1.53846C6.44125 1.53846 4.56595 2.79352 3.79137 4.65587C3.54676 5.26316 3.38369 5.91093 3.38369 6.59919C3.38369 8.62348 4.60671 10.4858 6.48201 11.2551C7.7458 11.7814 9.17266 11.7814 10.4365 11.2551C12.3117 10.4453 13.5755 8.62348 13.5755 6.59919C13.5755 3.84615 11.2926 1.53846 8.47962 1.53846Z" fill="var(--black);"/>
</svg>
